<?xml version="1.0" encoding="utf-8"?>
<!-- Generator: Adobe Illustrator 27.9.0, SVG Export Plug-In . SVG Version: 6.00 Build 0)  -->
<svg version="1.0" id="Layer_1" xmlns="http://www.w3.org/2000/svg" xmlns:xlink="http://www.w3.org/1999/xlink" x="0px" y="0px"
	 width="1000.7px" height="141.3px" viewBox="0 0 1000.7 141.3" style="enable-background:new 0 0 1000.7 141.3;"
	 xml:space="preserve">
<style type="text/css">
	.st0{fill:#FFFFFF;}
</style>
<g>
	<path class="st0" d="M19,237.9c0,4.1,0.7,7.6,2.1,10.4c1.4,2.9,3.3,5.2,5.8,7.1c2.5,1.8,5.3,3.2,8.6,4c3.2,0.8,6.7,1.3,10.5,1.3
		c4.1,0,7.6-0.5,10.4-1.4c2.9-0.9,5.2-2.2,7-3.7c1.8-1.5,3.1-3.2,3.9-5.1c0.8-1.9,1.2-3.9,1.2-5.9c0-4.1-0.9-7.1-2.8-9
		c-1.8-1.9-3.9-3.3-6-4.1c-3.8-1.4-8.2-2.7-13.2-4c-5-1.2-11.2-2.9-18.6-4.9c-4.6-1.2-8.4-2.8-11.4-4.7c-3-1.9-5.4-4.1-7.2-6.5
		c-1.8-2.4-3.1-4.9-3.8-7.6c-0.7-2.7-1.1-5.4-1.1-8.2c0-5.4,1.1-10,3.4-14c2.2-3.9,5.2-7.2,8.9-9.8c3.7-2.6,7.9-4.5,12.5-5.7
		c4.7-1.2,9.4-1.9,14.2-1.9c5.6,0,10.8,0.7,15.7,2.2c4.9,1.4,9.3,3.6,13,6.5c3.7,2.9,6.7,6.4,8.9,10.7c2.2,4.2,3.3,9.1,3.3,14.7
		H65.6c-0.5-6.9-2.8-11.7-7-14.6c-4.2-2.8-9.5-4.3-16-4.3c-2.2,0-4.4,0.2-6.7,0.7c-2.3,0.4-4.4,1.2-6.3,2.2c-1.9,1-3.5,2.5-4.7,4.3
		c-1.2,1.8-1.9,4-1.9,6.7c0,3.8,1.2,6.7,3.5,8.9c2.3,2.1,5.4,3.8,9.2,4.9c0.4,0.1,2,0.5,4.7,1.3c2.7,0.7,5.8,1.6,9.2,2.5
		c3.4,0.9,6.7,1.8,9.9,2.6c3.2,0.8,5.5,1.5,6.9,1.9c3.5,1.1,6.5,2.6,9.1,4.5c2.6,1.9,4.8,4.1,6.5,6.5c1.7,2.4,3,5.1,3.9,7.8
		c0.8,2.8,1.3,5.6,1.3,8.4c0,6-1.2,11.1-3.7,15.3c-2.4,4.2-5.6,7.7-9.6,10.4c-4,2.7-8.5,4.7-13.6,5.9c-5.1,1.2-10.2,1.9-15.5,1.9
		c-6.1,0-11.8-0.7-17.2-2.2c-5.4-1.5-10.1-3.8-14-6.9c-4-3.1-7.2-7-9.6-11.9c-2.4-4.8-3.6-10.5-3.7-17.1H19z"/>
	<path class="st0" d="M98,196.2h62.7v11.9L116.5,260H163v13.4H95.1v-11.9l42.7-51.8H98V196.2z"/>
	<path class="st0" d="M187.6,239.2c0,3,0.4,5.9,1.3,8.7c0.8,2.8,2.1,5.2,3.8,7.3c1.7,2.1,3.8,3.8,6.4,5c2.6,1.2,5.7,1.9,9.3,1.9
		c5,0,9-1.1,12-3.2c3-2.1,5.3-5.3,6.8-9.6h16.1c-0.9,4.2-2.4,7.9-4.6,11.2c-2.2,3.3-4.8,6-7.9,8.3c-3.1,2.2-6.5,3.9-10.4,5.1
		c-3.8,1.1-7.8,1.7-12,1.7c-6.1,0-11.4-1-16.1-3c-4.7-2-8.6-4.8-11.9-8.4c-3.2-3.6-5.7-7.9-7.3-12.8c-1.6-5-2.5-10.4-2.5-16.4
		c0-5.5,0.9-10.7,2.6-15.6c1.7-4.9,4.2-9.3,7.5-13c3.2-3.7,7.1-6.7,11.7-8.9c4.6-2.2,9.8-3.3,15.5-3.3c6.1,0,11.5,1.3,16.3,3.8
		c4.8,2.5,8.8,5.9,12,10.1c3.2,4.2,5.5,9,6.9,14.4c1.4,5.4,1.8,11,1.1,16.8H187.6z M227.3,228c-0.2-2.7-0.8-5.3-1.7-7.8
		c-0.9-2.5-2.2-4.7-3.9-6.5c-1.6-1.8-3.6-3.3-6-4.5c-2.3-1.1-5-1.7-7.8-1.7c-3,0-5.7,0.5-8.1,1.6c-2.4,1-4.5,2.5-6.3,4.3
		c-1.7,1.8-3.1,4-4.2,6.5c-1,2.5-1.6,5.2-1.7,8.1H227.3z"/>
	<path class="st0" d="M258.4,196.2h16v14.9h0.3c0.5-2.1,1.5-4.1,2.9-6.1c1.4-2,3.2-3.8,5.2-5.4c2-1.6,4.3-3,6.8-4
		c2.5-1,5-1.5,7.6-1.5c2,0,3.4,0.1,4.1,0.1c0.7,0.1,1.5,0.2,2.3,0.3V211c-1.2-0.2-2.4-0.4-3.7-0.5c-1.2-0.1-2.5-0.2-3.7-0.2
		c-2.9,0-5.6,0.6-8.1,1.7c-2.5,1.1-4.8,2.8-6.6,5.1c-1.9,2.2-3.4,5-4.5,8.3c-1.1,3.3-1.6,7.1-1.6,11.3v36.7h-17V196.2z"/>
	<path class="st0" d="M313.3,166.8h17v60.6l30.7-31.2H382l-29.6,28.4l32.4,48.8h-20.7l-23.6-37.5l-10.1,9.9v27.6h-17V166.8z"/>
	<path class="st0" d="M402.9,239.2c0,3,0.4,5.9,1.3,8.7c0.8,2.8,2.1,5.2,3.8,7.3c1.7,2.1,3.8,3.8,6.4,5c2.6,1.2,5.7,1.9,9.3,1.9
		c5,0,9-1.1,12-3.2c3-2.1,5.3-5.3,6.8-9.6h16.1c-0.9,4.2-2.4,7.9-4.6,11.2c-2.2,3.3-4.8,6-7.9,8.3c-3.1,2.2-6.5,3.9-10.4,5.1
		c-3.8,1.1-7.8,1.7-12,1.7c-6.1,0-11.4-1-16.1-3c-4.7-2-8.6-4.8-11.9-8.4c-3.2-3.6-5.7-7.9-7.3-12.8c-1.6-5-2.5-10.4-2.5-16.4
		c0-5.5,0.9-10.7,2.6-15.6c1.7-4.9,4.2-9.3,7.5-13c3.2-3.7,7.1-6.7,11.7-8.9c4.6-2.2,9.8-3.3,15.5-3.3c6.1,0,11.5,1.3,16.3,3.8
		c4.8,2.5,8.8,5.9,12,10.1c3.2,4.2,5.5,9,6.9,14.4c1.4,5.4,1.8,11,1.1,16.8H402.9z M442.6,228c-0.2-2.7-0.8-5.3-1.7-7.8
		c-0.9-2.5-2.2-4.7-3.9-6.5c-1.6-1.8-3.6-3.3-6-4.5c-2.3-1.1-5-1.7-7.8-1.7c-3,0-5.7,0.5-8.1,1.6c-2.4,1-4.5,2.5-6.3,4.3
		c-1.7,1.8-3.1,4-4.2,6.5c-1,2.5-1.6,5.2-1.7,8.1H442.6z"/>
	<path class="st0" d="M486.3,248.6c0.5,5,2.4,8.5,5.7,10.4c3.3,2,7.2,3,11.8,3c1.6,0,3.4-0.1,5.4-0.4c2-0.2,4-0.7,5.7-1.4
		c1.8-0.7,3.3-1.7,4.4-3.1c1.1-1.3,1.7-3.1,1.6-5.3c-0.1-2.2-0.9-4-2.4-5.4c-1.5-1.4-3.4-2.5-5.7-3.4c-2.3-0.8-5-1.6-8-2.2
		c-3-0.6-6-1.2-9.1-1.9c-3.2-0.7-6.2-1.5-9.2-2.5c-2.9-1-5.6-2.3-7.9-4c-2.3-1.7-4.2-3.9-5.6-6.5c-1.4-2.6-2.1-5.9-2.1-9.8
		c0-4.2,1-7.7,3.1-10.5c2-2.8,4.6-5.1,7.8-6.9c3.1-1.7,6.6-3,10.4-3.7c3.8-0.7,7.5-1,11-1c4,0,7.8,0.4,11.4,1.3
		c3.6,0.8,6.9,2.2,9.9,4.1c2.9,1.9,5.4,4.4,7.3,7.4c1.9,3,3.2,6.7,3.7,11h-17.8c-0.8-4.1-2.7-6.8-5.6-8.2c-2.9-1.4-6.3-2.1-10.1-2.1
		c-1.2,0-2.6,0.1-4.3,0.3c-1.6,0.2-3.2,0.6-4.6,1.1c-1.4,0.5-2.7,1.3-3.7,2.4c-1,1-1.5,2.4-1.5,4.1c0,2.1,0.7,3.8,2.2,5.1
		c1.4,1.3,3.3,2.4,5.7,3.2c2.3,0.8,5,1.6,8,2.2c3,0.6,6.1,1.2,9.3,1.9c3.1,0.7,6.1,1.5,9.1,2.5c3,1,5.6,2.3,8,4
		c2.3,1.7,4.2,3.8,5.7,6.4c1.4,2.6,2.2,5.8,2.2,9.6c0,4.6-1,8.5-3.1,11.6c-2.1,3.2-4.8,5.8-8.1,7.8c-3.3,2-7,3.4-11.1,4.3
		c-4.1,0.9-8.1,1.3-12.1,1.3c-4.9,0-9.4-0.5-13.5-1.6c-4.1-1.1-7.7-2.8-10.7-5c-3-2.2-5.4-5-7.2-8.4c-1.7-3.3-2.7-7.3-2.8-11.9
		H486.3z"/>
	<path class="st0" d="M549.8,196.2h62.7v11.9L568.3,260h46.4v13.4h-67.9v-11.9l42.7-51.8h-39.7V196.2z"/>
	<path class="st0" d="M621.8,196.2h12.8v-23.1h17v23.1H667v12.7h-15.4v41.2c0,1.8,0.1,3.3,0.2,4.6c0.1,1.3,0.5,2.4,1,3.3
		c0.5,0.9,1.4,1.6,2.5,2c1.1,0.4,2.6,0.7,4.5,0.7c1.2,0,2.4,0,3.6-0.1c1.2,0,2.4-0.2,3.6-0.5v13.1c-1.9,0.2-3.7,0.4-5.5,0.6
		c-1.8,0.2-3.6,0.3-5.5,0.3c-4.5,0-8.1-0.4-10.8-1.3c-2.7-0.8-4.9-2.1-6.4-3.7c-1.5-1.6-2.6-3.7-3.1-6.2c-0.5-2.5-0.9-5.3-1-8.5
		v-45.5h-12.8V196.2z"/>
	<path class="st0" d="M713,275.5c-6.2,0-11.7-1-16.5-3.1c-4.8-2-8.9-4.9-12.2-8.4c-3.3-3.6-5.9-7.9-7.6-12.8
		c-1.7-5-2.6-10.4-2.6-16.4c0-5.9,0.9-11.3,2.6-16.3c1.7-5,4.3-9.3,7.6-12.8c3.3-3.6,7.4-6.4,12.2-8.4c4.8-2,10.3-3.1,16.5-3.1
		c6.2,0,11.7,1,16.5,3.1c4.8,2,8.9,4.9,12.2,8.4c3.3,3.6,5.9,7.9,7.6,12.8c1.7,5,2.6,10.4,2.6,16.3c0,6-0.9,11.4-2.6,16.4
		c-1.7,5-4.3,9.3-7.6,12.8c-3.3,3.6-7.4,6.4-12.2,8.4C724.7,274.5,719.2,275.5,713,275.5z M704.4,164.1h20.3l-21.5,21.3h-12.2
		L704.4,164.1z M713,262c3.8,0,7.1-0.8,9.9-2.4c2.8-1.6,5.1-3.7,6.9-6.3c1.8-2.6,3.1-5.5,4-8.7c0.8-3.2,1.3-6.5,1.3-9.9
		c0-3.3-0.4-6.6-1.3-9.9c-0.8-3.3-2.2-6.2-4-8.7c-1.8-2.5-4.1-4.6-6.9-6.2c-2.8-1.6-6.1-2.4-9.9-2.4c-3.8,0-7.1,0.8-9.9,2.4
		c-2.8,1.6-5.1,3.7-6.9,6.2c-1.8,2.5-3.1,5.4-4,8.7c-0.8,3.3-1.3,6.6-1.3,9.9c0,3.4,0.4,6.7,1.3,9.9c0.8,3.2,2.2,6.1,4,8.7
		c1.8,2.6,4.1,4.7,6.9,6.3C706,261.2,709.3,262,713,262z M734.1,164.1h20.3l-21.5,21.3h-12.2L734.1,164.1z"/>
	<path class="st0" d="M779.2,248.6c0.5,5,2.4,8.5,5.7,10.4c3.3,2,7.2,3,11.8,3c1.6,0,3.4-0.1,5.4-0.4c2-0.2,4-0.7,5.7-1.4
		c1.8-0.7,3.3-1.7,4.4-3.1c1.1-1.3,1.7-3.1,1.6-5.3c-0.1-2.2-0.9-4-2.4-5.4c-1.5-1.4-3.4-2.5-5.7-3.4c-2.3-0.8-5-1.6-8-2.2
		c-3-0.6-6-1.2-9.1-1.9c-3.2-0.7-6.2-1.5-9.2-2.5c-2.9-1-5.6-2.3-7.9-4c-2.3-1.7-4.2-3.9-5.6-6.5c-1.4-2.6-2.1-5.9-2.1-9.8
		c0-4.2,1-7.7,3.1-10.5c2-2.8,4.6-5.1,7.8-6.9c3.1-1.7,6.6-3,10.4-3.7c3.8-0.7,7.5-1,11-1c4,0,7.8,0.4,11.4,1.3
		c3.6,0.8,6.9,2.2,9.9,4.1c2.9,1.9,5.4,4.4,7.3,7.4c1.9,3,3.2,6.7,3.7,11h-17.8c-0.8-4.1-2.7-6.8-5.6-8.2c-2.9-1.4-6.3-2.1-10.1-2.1
		c-1.2,0-2.6,0.1-4.3,0.3c-1.6,0.2-3.2,0.6-4.6,1.1c-1.4,0.5-2.7,1.3-3.7,2.4c-1,1-1.5,2.4-1.5,4.1c0,2.1,0.7,3.8,2.2,5.1
		c1.4,1.3,3.3,2.4,5.7,3.2c2.3,0.8,5,1.6,8,2.2s6.1,1.2,9.3,1.9c3.1,0.7,6.1,1.5,9.1,2.5c3,1,5.6,2.3,8,4c2.3,1.7,4.2,3.8,5.7,6.4
		c1.4,2.6,2.2,5.8,2.2,9.6c0,4.6-1,8.5-3.1,11.6c-2.1,3.2-4.8,5.8-8.1,7.8c-3.3,2-7,3.4-11.1,4.3c-4.1,0.9-8.1,1.3-12.1,1.3
		c-4.9,0-9.4-0.5-13.5-1.6c-4.1-1.1-7.7-2.8-10.7-5c-3-2.2-5.4-5-7.2-8.4c-1.7-3.3-2.7-7.3-2.8-11.9H779.2z"/>
	<path class="st0" d="M857.9,239.2c0,3,0.4,5.9,1.3,8.7c0.8,2.8,2.1,5.2,3.8,7.3c1.7,2.1,3.8,3.8,6.4,5c2.6,1.2,5.7,1.9,9.3,1.9
		c5,0,9-1.1,12-3.2c3-2.1,5.3-5.3,6.8-9.6h16.1c-0.9,4.2-2.4,7.9-4.6,11.2c-2.2,3.3-4.8,6-7.9,8.3c-3.1,2.2-6.5,3.9-10.4,5.1
		c-3.8,1.1-7.8,1.7-12,1.7c-6.1,0-11.4-1-16.1-3c-4.7-2-8.6-4.8-11.9-8.4c-3.2-3.6-5.7-7.9-7.3-12.8c-1.6-5-2.5-10.4-2.5-16.4
		c0-5.5,0.9-10.7,2.6-15.6c1.7-4.9,4.2-9.3,7.5-13c3.2-3.7,7.1-6.7,11.7-8.9c4.6-2.2,9.8-3.3,15.5-3.3c6.1,0,11.5,1.3,16.3,3.8
		c4.8,2.5,8.8,5.9,12,10.1c3.2,4.2,5.5,9,6.9,14.4c1.4,5.4,1.8,11,1.1,16.8H857.9z M873.1,164.1l13.6,21.3h-12.4l-21.2-21.3H873.1z
		 M897.6,228c-0.2-2.7-0.8-5.3-1.7-7.8c-0.9-2.5-2.2-4.7-3.9-6.5c-1.6-1.8-3.6-3.3-6-4.5c-2.3-1.1-5-1.7-7.8-1.7
		c-3,0-5.7,0.5-8.1,1.6c-2.4,1-4.5,2.5-6.3,4.3c-1.7,1.8-3.1,4-4.2,6.5c-1,2.5-1.6,5.2-1.7,8.1H897.6z"/>
	<path class="st0" d="M1000.3,269.4c0,11.6-3.3,20.3-9.8,26c-6.5,5.7-15.9,8.6-28.1,8.6c-3.9,0-7.8-0.4-11.7-1.2
		c-3.9-0.8-7.5-2.1-10.7-4c-3.2-1.9-5.9-4.4-8.1-7.5c-2.2-3.1-3.5-6.9-3.9-11.3h17c0.5,2.4,1.3,4.3,2.5,5.8c1.2,1.5,2.6,2.7,4.3,3.5
		c1.6,0.8,3.5,1.4,5.4,1.6c2,0.2,4.1,0.4,6.3,0.4c6.9,0,11.9-1.7,15.1-5.1c3.2-3.4,4.8-8.3,4.8-14.6v-11.8H983
		c-2.4,4.3-5.6,7.6-9.8,10c-4.1,2.4-8.6,3.6-13.4,3.6c-6.2,0-11.4-1.1-15.7-3.2c-4.3-2.1-7.9-5.1-10.7-8.8c-2.8-3.7-4.9-8-6.2-12.9
		c-1.3-4.9-1.9-10.1-1.9-15.7c0-5.2,0.8-10.1,2.4-14.8c1.6-4.7,3.9-8.8,6.9-12.3c3-3.5,6.6-6.3,11-8.4c4.3-2.1,9.2-3.1,14.7-3.1
		c4.9,0,9.4,1,13.4,3.1c4.1,2,7.2,5.2,9.4,9.6h0.3v-10.6h17V269.4z M962.6,260c3.8,0,7-0.8,9.6-2.3c2.6-1.5,4.8-3.6,6.4-6.1
		c1.6-2.5,2.8-5.4,3.6-8.7c0.7-3.2,1.1-6.5,1.1-9.8c0-3.3-0.4-6.5-1.2-9.6c-0.8-3.1-2-5.8-3.7-8.2c-1.6-2.4-3.8-4.3-6.4-5.7
		c-2.6-1.4-5.8-2.1-9.5-2.1c-3.8,0-7,0.8-9.6,2.4c-2.6,1.6-4.7,3.7-6.3,6.2c-1.6,2.5-2.7,5.4-3.4,8.7c-0.7,3.2-1,6.4-1,9.6
		c0,3.2,0.4,6.3,1.2,9.3c0.8,3,2,5.7,3.7,8.1c1.6,2.4,3.7,4.3,6.3,5.8C955.9,259.2,959,260,962.6,260z"/>
</g>
<g>
	<path d="M19,73.7c0,4.1,0.7,7.6,2.1,10.4c1.4,2.9,3.3,5.2,5.8,7.1c2.5,1.8,5.3,3.2,8.6,4c3.2,0.8,6.7,1.3,10.5,1.3
		c4.1,0,7.6-0.5,10.4-1.4c2.9-0.9,5.2-2.2,7-3.7c1.8-1.5,3.1-3.2,3.9-5.1c0.8-1.9,1.2-3.9,1.2-5.9c0-4.1-0.9-7.1-2.8-9
		c-1.8-1.9-3.9-3.3-6-4.1c-3.8-1.4-8.2-2.7-13.2-4c-5-1.2-11.2-2.9-18.6-4.9c-4.6-1.2-8.4-2.8-11.4-4.7c-3-1.9-5.4-4.1-7.2-6.5
		c-1.8-2.4-3.1-4.9-3.8-7.6c-0.7-2.7-1.1-5.4-1.1-8.2c0-5.4,1.1-10,3.4-14c2.2-3.9,5.2-7.2,8.9-9.8c3.7-2.6,7.9-4.5,12.5-5.7
		c4.7-1.2,9.4-1.9,14.2-1.9c5.6,0,10.8,0.7,15.7,2.2c4.9,1.4,9.3,3.6,13,6.5c3.7,2.9,6.7,6.4,8.9,10.7c2.2,4.2,3.3,9.1,3.3,14.7
		H65.6c-0.5-6.9-2.8-11.7-7-14.6c-4.2-2.8-9.5-4.3-16-4.3c-2.2,0-4.4,0.2-6.7,0.7c-2.3,0.4-4.4,1.2-6.3,2.2c-1.9,1-3.5,2.5-4.7,4.3
		c-1.2,1.8-1.9,4-1.9,6.7c0,3.8,1.2,6.7,3.5,8.9c2.3,2.1,5.4,3.8,9.2,4.9c0.4,0.1,2,0.5,4.7,1.3c2.7,0.7,5.8,1.6,9.2,2.5
		c3.4,0.9,6.7,1.8,9.9,2.6c3.2,0.8,5.5,1.5,6.9,1.9c3.5,1.1,6.5,2.6,9.1,4.5c2.6,1.9,4.8,4.1,6.5,6.5c1.7,2.4,3,5.1,3.9,7.8
		c0.8,2.8,1.3,5.6,1.3,8.4c0,6-1.2,11.1-3.7,15.3c-2.4,4.2-5.6,7.7-9.6,10.4c-4,2.7-8.5,4.7-13.6,5.9c-5.1,1.2-10.2,1.9-15.5,1.9
		c-6.1,0-11.8-0.7-17.2-2.2s-10.1-3.8-14-6.9c-4-3.1-7.2-7-9.6-11.9C1.7,86,0.4,80.3,0.3,73.7H19z"/>
	<path d="M98,32.1h62.7V44l-44.2,51.8H163v13.4H95.1V97.3l42.7-51.8H98V32.1z"/>
	<path d="M187.6,75.1c0,3,0.4,5.9,1.3,8.7c0.8,2.8,2.1,5.2,3.8,7.3c1.7,2.1,3.8,3.8,6.4,5c2.6,1.2,5.7,1.9,9.3,1.9c5,0,9-1.1,12-3.2
		c3-2.1,5.3-5.3,6.8-9.6h16.1c-0.9,4.2-2.4,7.9-4.6,11.2c-2.2,3.3-4.8,6-7.9,8.3c-3.1,2.2-6.5,3.9-10.4,5.1c-3.8,1.1-7.8,1.7-12,1.7
		c-6.1,0-11.4-1-16.1-3c-4.7-2-8.6-4.8-11.9-8.4c-3.2-3.6-5.7-7.9-7.3-12.8c-1.6-5-2.5-10.4-2.5-16.4c0-5.5,0.9-10.7,2.6-15.6
		c1.7-4.9,4.2-9.3,7.5-13c3.2-3.7,7.1-6.7,11.7-8.9c4.6-2.2,9.8-3.3,15.5-3.3c6.1,0,11.5,1.3,16.3,3.8c4.8,2.5,8.8,5.9,12,10.1
		c3.2,4.2,5.5,9,6.9,14.4c1.4,5.4,1.8,11,1.1,16.8H187.6z M227.3,63.9c-0.2-2.7-0.8-5.3-1.7-7.8c-0.9-2.5-2.2-4.7-3.9-6.5
		c-1.6-1.8-3.6-3.3-6-4.5c-2.3-1.1-5-1.7-7.8-1.7c-3,0-5.7,0.5-8.1,1.6c-2.4,1-4.5,2.5-6.3,4.3c-1.7,1.8-3.1,4-4.2,6.5
		c-1,2.5-1.6,5.2-1.7,8.1H227.3z"/>
	<path d="M258.4,32.1h16V47h0.3c0.5-2.1,1.5-4.1,2.9-6.1c1.4-2,3.2-3.8,5.2-5.4c2-1.6,4.3-3,6.8-4c2.5-1,5-1.5,7.6-1.5
		c2,0,3.4,0.1,4.1,0.1c0.7,0.1,1.5,0.2,2.3,0.3v16.4c-1.2-0.2-2.4-0.4-3.7-0.5c-1.2-0.1-2.5-0.2-3.7-0.2c-2.9,0-5.6,0.6-8.1,1.7
		c-2.5,1.1-4.8,2.8-6.6,5.1c-1.9,2.2-3.4,5-4.5,8.3c-1.1,3.3-1.6,7.1-1.6,11.3v36.7h-17V32.1z"/>
	<path d="M313.3,2.7h17v60.6l30.7-31.2H382l-29.6,28.4l32.4,48.8h-20.7l-23.6-37.5l-10.1,9.9v27.6h-17V2.7z"/>
	<path d="M402.9,75.1c0,3,0.4,5.9,1.3,8.7c0.8,2.8,2.1,5.2,3.8,7.3c1.7,2.1,3.8,3.8,6.4,5c2.6,1.2,5.7,1.9,9.3,1.9c5,0,9-1.1,12-3.2
		c3-2.1,5.3-5.3,6.8-9.6h16.1c-0.9,4.2-2.4,7.9-4.6,11.2c-2.2,3.3-4.8,6-7.9,8.3c-3.1,2.2-6.5,3.9-10.4,5.1c-3.8,1.1-7.8,1.7-12,1.7
		c-6.1,0-11.4-1-16.1-3c-4.7-2-8.6-4.8-11.9-8.4c-3.2-3.6-5.7-7.9-7.3-12.8c-1.6-5-2.5-10.4-2.5-16.4c0-5.5,0.9-10.7,2.6-15.6
		c1.7-4.9,4.2-9.3,7.5-13c3.2-3.7,7.1-6.7,11.7-8.9c4.6-2.2,9.8-3.3,15.5-3.3c6.1,0,11.5,1.3,16.3,3.8c4.8,2.5,8.8,5.9,12,10.1
		c3.2,4.2,5.5,9,6.9,14.4c1.4,5.4,1.8,11,1.1,16.8H402.9z M442.6,63.9c-0.2-2.7-0.8-5.3-1.7-7.8c-0.9-2.5-2.2-4.7-3.9-6.5
		c-1.6-1.8-3.6-3.3-6-4.5c-2.3-1.1-5-1.7-7.8-1.7c-3,0-5.7,0.5-8.1,1.6c-2.4,1-4.5,2.5-6.3,4.3c-1.7,1.8-3.1,4-4.2,6.5
		c-1,2.5-1.6,5.2-1.7,8.1H442.6z"/>
	<path d="M486.3,84.5c0.5,5,2.4,8.5,5.7,10.4c3.3,2,7.2,3,11.8,3c1.6,0,3.4-0.1,5.4-0.4c2-0.2,4-0.7,5.7-1.4
		c1.8-0.7,3.3-1.7,4.4-3.1c1.1-1.3,1.7-3.1,1.6-5.3c-0.1-2.2-0.9-4-2.4-5.4c-1.5-1.4-3.4-2.5-5.7-3.4c-2.3-0.8-5-1.6-8-2.2
		c-3-0.6-6-1.2-9.1-1.9c-3.2-0.7-6.2-1.5-9.2-2.5c-2.9-1-5.6-2.3-7.9-4c-2.3-1.7-4.2-3.9-5.6-6.5c-1.4-2.6-2.1-5.9-2.1-9.8
		c0-4.2,1-7.7,3.1-10.5c2-2.8,4.6-5.1,7.8-6.9c3.1-1.7,6.6-3,10.4-3.7c3.8-0.7,7.5-1,11-1c4,0,7.8,0.4,11.4,1.3
		c3.6,0.8,6.9,2.2,9.9,4.1c2.9,1.9,5.4,4.4,7.3,7.4c1.9,3,3.2,6.7,3.7,11h-17.8c-0.8-4.1-2.7-6.8-5.6-8.2c-2.9-1.4-6.3-2.1-10.1-2.1
		c-1.2,0-2.6,0.1-4.3,0.3c-1.6,0.2-3.2,0.6-4.6,1.1c-1.4,0.5-2.7,1.3-3.7,2.4c-1,1-1.5,2.4-1.5,4.1c0,2.1,0.7,3.8,2.2,5.1
		c1.4,1.3,3.3,2.4,5.7,3.2c2.3,0.8,5,1.6,8,2.2c3,0.6,6.1,1.2,9.3,1.9c3.1,0.7,6.1,1.5,9.1,2.5c3,1,5.6,2.3,8,4
		c2.3,1.7,4.2,3.8,5.7,6.4c1.4,2.6,2.2,5.8,2.2,9.6c0,4.6-1,8.5-3.1,11.6c-2.1,3.2-4.8,5.8-8.1,7.8c-3.3,2-7,3.4-11.1,4.3
		c-4.1,0.9-8.1,1.3-12.1,1.3c-4.9,0-9.4-0.5-13.5-1.6c-4.1-1.1-7.7-2.8-10.7-5c-3-2.2-5.4-5-7.2-8.4c-1.7-3.3-2.7-7.3-2.8-11.9
		H486.3z"/>
	<path d="M549.8,32.1h62.7V44l-44.2,51.8h46.4v13.4h-67.9V97.3l42.7-51.8h-39.7V32.1z"/>
	<path d="M621.8,32.1h12.8V9h17v23.1H667v12.7h-15.4V86c0,1.8,0.1,3.3,0.2,4.6c0.1,1.3,0.5,2.4,1,3.3c0.5,0.9,1.4,1.6,2.5,2
		c1.1,0.4,2.6,0.7,4.5,0.7c1.2,0,2.4,0,3.6-0.1c1.2,0,2.4-0.2,3.6-0.5v13.1c-1.9,0.2-3.7,0.4-5.5,0.6c-1.8,0.2-3.6,0.3-5.5,0.3
		c-4.5,0-8.1-0.4-10.8-1.3c-2.7-0.8-4.9-2.1-6.4-3.7c-1.5-1.6-2.6-3.7-3.1-6.2c-0.5-2.5-0.9-5.3-1-8.5V44.8h-12.8V32.1z"/>
	<path d="M713,111.3c-6.2,0-11.7-1-16.5-3.1c-4.8-2-8.9-4.9-12.2-8.4c-3.3-3.6-5.9-7.9-7.6-12.8c-1.7-5-2.6-10.4-2.6-16.4
		c0-5.9,0.9-11.3,2.6-16.3c1.7-5,4.3-9.3,7.6-12.8c3.3-3.6,7.4-6.4,12.2-8.4c4.8-2,10.3-3.1,16.5-3.1c6.2,0,11.7,1,16.5,3.1
		c4.8,2,8.9,4.9,12.2,8.4c3.3,3.6,5.9,7.9,7.6,12.8c1.7,5,2.6,10.4,2.6,16.3c0,6-0.9,11.4-2.6,16.4c-1.7,5-4.3,9.3-7.6,12.8
		c-3.3,3.6-7.4,6.4-12.2,8.4C724.7,110.3,719.2,111.3,713,111.3z M704.4,0h20.3l-21.5,21.3h-12.2L704.4,0z M713,97.9
		c3.8,0,7.1-0.8,9.9-2.4c2.8-1.6,5.1-3.7,6.9-6.3c1.8-2.6,3.1-5.5,4-8.7c0.8-3.2,1.3-6.5,1.3-9.9c0-3.3-0.4-6.6-1.3-9.9
		c-0.8-3.3-2.2-6.2-4-8.7c-1.8-2.5-4.1-4.6-6.9-6.2c-2.8-1.6-6.1-2.4-9.9-2.4c-3.8,0-7.1,0.8-9.9,2.4c-2.8,1.6-5.1,3.7-6.9,6.2
		c-1.8,2.5-3.1,5.4-4,8.7c-0.8,3.3-1.3,6.6-1.3,9.9c0,3.4,0.4,6.7,1.3,9.9c0.8,3.2,2.2,6.1,4,8.7c1.8,2.6,4.1,4.7,6.9,6.3
		C706,97.1,709.3,97.9,713,97.9z M734.1,0h20.3l-21.5,21.3h-12.2L734.1,0z"/>
	<path d="M779.2,84.5c0.5,5,2.4,8.5,5.7,10.4c3.3,2,7.2,3,11.8,3c1.6,0,3.4-0.1,5.4-0.4c2-0.2,4-0.7,5.7-1.4
		c1.8-0.7,3.3-1.7,4.4-3.1c1.1-1.3,1.7-3.1,1.6-5.3c-0.1-2.2-0.9-4-2.4-5.4c-1.5-1.4-3.4-2.5-5.7-3.4c-2.3-0.8-5-1.6-8-2.2
		c-3-0.6-6-1.2-9.1-1.9c-3.2-0.7-6.2-1.5-9.2-2.5c-2.9-1-5.6-2.3-7.9-4c-2.3-1.7-4.2-3.9-5.6-6.5c-1.4-2.6-2.1-5.9-2.1-9.8
		c0-4.2,1-7.7,3.1-10.5c2-2.8,4.6-5.1,7.8-6.9c3.1-1.7,6.6-3,10.4-3.7c3.8-0.7,7.5-1,11-1c4,0,7.8,0.4,11.4,1.3
		c3.6,0.8,6.9,2.2,9.9,4.1c2.9,1.9,5.4,4.4,7.3,7.4c1.9,3,3.2,6.7,3.7,11h-17.8c-0.8-4.1-2.7-6.8-5.6-8.2c-2.9-1.4-6.3-2.1-10.1-2.1
		c-1.2,0-2.6,0.1-4.3,0.3c-1.6,0.2-3.2,0.6-4.6,1.1c-1.4,0.5-2.7,1.3-3.7,2.4c-1,1-1.5,2.4-1.5,4.1c0,2.1,0.7,3.8,2.2,5.1
		c1.4,1.3,3.3,2.4,5.7,3.2c2.3,0.8,5,1.6,8,2.2c3,0.6,6.1,1.2,9.3,1.9c3.1,0.7,6.1,1.5,9.1,2.5c3,1,5.6,2.3,8,4
		c2.3,1.7,4.2,3.8,5.7,6.4c1.4,2.6,2.2,5.8,2.2,9.6c0,4.6-1,8.5-3.1,11.6c-2.1,3.2-4.8,5.8-8.1,7.8c-3.3,2-7,3.4-11.1,4.3
		c-4.1,0.9-8.1,1.3-12.1,1.3c-4.9,0-9.4-0.5-13.5-1.6c-4.1-1.1-7.7-2.8-10.7-5c-3-2.2-5.4-5-7.2-8.4c-1.7-3.3-2.7-7.3-2.8-11.9
		H779.2z"/>
	<path d="M857.9,75.1c0,3,0.4,5.9,1.3,8.7c0.8,2.8,2.1,5.2,3.8,7.3c1.7,2.1,3.8,3.8,6.4,5c2.6,1.2,5.7,1.9,9.3,1.9c5,0,9-1.1,12-3.2
		c3-2.1,5.3-5.3,6.8-9.6h16.1c-0.9,4.2-2.4,7.9-4.6,11.2c-2.2,3.3-4.8,6-7.9,8.3c-3.1,2.2-6.5,3.9-10.4,5.1c-3.8,1.1-7.8,1.7-12,1.7
		c-6.1,0-11.4-1-16.1-3c-4.7-2-8.6-4.8-11.9-8.4c-3.2-3.6-5.7-7.9-7.3-12.8c-1.6-5-2.5-10.4-2.5-16.4c0-5.5,0.9-10.7,2.6-15.6
		c1.7-4.9,4.2-9.3,7.5-13c3.2-3.7,7.1-6.7,11.7-8.9c4.6-2.2,9.8-3.3,15.5-3.3c6.1,0,11.5,1.3,16.3,3.8c4.8,2.5,8.8,5.9,12,10.1
		c3.2,4.2,5.5,9,6.9,14.4c1.4,5.4,1.8,11,1.1,16.8H857.9z M873.1,0l13.6,21.3h-12.4L853.1,0H873.1z M897.6,63.9
		c-0.2-2.7-0.8-5.3-1.7-7.8c-0.9-2.5-2.2-4.7-3.9-6.5c-1.6-1.8-3.6-3.3-6-4.5c-2.3-1.1-5-1.7-7.8-1.7c-3,0-5.7,0.5-8.1,1.6
		c-2.4,1-4.5,2.5-6.3,4.3c-1.7,1.8-3.1,4-4.2,6.5c-1,2.5-1.6,5.2-1.7,8.1H897.6z"/>
	<path d="M1000.3,105.2c0,11.6-3.3,20.3-9.8,26c-6.5,5.7-15.9,8.6-28.1,8.6c-3.9,0-7.8-0.4-11.7-1.2c-3.9-0.8-7.5-2.1-10.7-4
		c-3.2-1.9-5.9-4.4-8.1-7.5c-2.2-3.1-3.5-6.9-3.9-11.3h17c0.5,2.4,1.3,4.3,2.5,5.8c1.2,1.5,2.6,2.7,4.3,3.5c1.6,0.8,3.5,1.4,5.4,1.6
		c2,0.2,4.1,0.4,6.3,0.4c6.9,0,11.9-1.7,15.1-5.1c3.2-3.4,4.8-8.3,4.8-14.6V95.7H983c-2.4,4.3-5.6,7.6-9.8,10
		c-4.1,2.4-8.6,3.6-13.4,3.6c-6.2,0-11.4-1.1-15.7-3.2c-4.3-2.1-7.9-5.1-10.7-8.8c-2.8-3.7-4.9-8-6.2-12.9
		c-1.3-4.9-1.9-10.1-1.9-15.7c0-5.2,0.8-10.1,2.4-14.8c1.6-4.7,3.9-8.8,6.9-12.3c3-3.5,6.6-6.3,11-8.4c4.3-2.1,9.2-3.1,14.7-3.1
		c4.9,0,9.4,1,13.4,3.1c4.1,2,7.2,5.2,9.4,9.6h0.3V32.1h17V105.2z M962.6,95.8c3.8,0,7-0.8,9.6-2.3c2.6-1.5,4.8-3.6,6.4-6.1
		c1.6-2.5,2.8-5.4,3.6-8.7c0.7-3.2,1.1-6.5,1.1-9.8c0-3.3-0.4-6.5-1.2-9.6c-0.8-3.1-2-5.8-3.7-8.2c-1.6-2.4-3.8-4.3-6.4-5.7
		c-2.6-1.4-5.8-2.1-9.5-2.1c-3.8,0-7,0.8-9.6,2.4c-2.6,1.6-4.7,3.7-6.3,6.2c-1.6,2.5-2.7,5.4-3.4,8.7c-0.7,3.2-1,6.4-1,9.6
		c0,3.2,0.4,6.3,1.2,9.3c0.8,3,2,5.7,3.7,8.1c1.6,2.4,3.7,4.3,6.3,5.8C955.9,95.1,959,95.8,962.6,95.8z"/>
</g>
<g>
</g>
<g>
</g>
<g>
</g>
<g>
</g>
<g>
</g>
<g>
</g>
</svg>
