<?xml version="1.0" encoding="UTF-8" standalone="no"?>
<!-- Created with Inkscape (http://www.inkscape.org/) -->

<svg
   version="1.1"
   id="svg2"
   width="1225.1067"
   height="377.95334"
   viewBox="0 0 1225.1067 377.95334"
   sodipodi:docname="Budavari_Onkorm_logo_fekete.ai"
   xmlns:inkscape="http://www.inkscape.org/namespaces/inkscape"
   xmlns:sodipodi="http://sodipodi.sourceforge.net/DTD/sodipodi-0.dtd"
   xmlns="http://www.w3.org/2000/svg"
   xmlns:svg="http://www.w3.org/2000/svg">
  <defs
     id="defs6">
    <clipPath
       clipPathUnits="userSpaceOnUse"
       id="clipPath16">
      <path
         d="M 0,283.465 H 918.83 V 0 H 0 Z"
         id="path14" />
    </clipPath>
  </defs>
  <sodipodi:namedview
     id="namedview4"
     pagecolor="#ffffff"
     bordercolor="#000000"
     borderopacity="0.25"
     inkscape:showpageshadow="2"
     inkscape:pageopacity="0.0"
     inkscape:pagecheckerboard="0"
     inkscape:deskcolor="#d1d1d1" />
  <g
     id="g8"
     inkscape:groupmode="layer"
     inkscape:label="Budavari_Onkorm_logo_fekete"
     transform="matrix(1.3333333,0,0,-1.3333333,0,377.95333)">
    <g
       id="g10">
      <g
         id="g12"
         clip-path="url(#clipPath16)">
        <path
           d="m 362.832,113.81 h 5.348 v -5.346 h -5.348 z m -11.909,0 h 5.349 v -5.346 h -5.349 z m 23.83,-29.371 c 0,8.66 -6.446,15.135 -15.177,15.135 -8.73,0 -15.176,-6.529 -15.176,-15.135 0,-8.601 6.446,-15.127 15.176,-15.127 8.731,0 15.177,6.469 15.177,15.127 m -35.265,0 c 0,11.342 8.472,19.848 20.088,19.848 11.617,0 20.088,-8.502 20.088,-19.848 0,-11.344 -8.471,-19.838 -20.088,-19.838 -11.616,0 -20.088,8.5 -20.088,19.838"
           style="fill:#333333;fill-opacity:1;fill-rule:nonzero;stroke:none"
           id="path18" />
        <g
           id="g20"
           transform="translate(419.7666,103.6364)">
          <path
             d="m 0,0 v -38.387 h -4.057 l -21.846,29.959 v -29.959 h -4.711 V 0 h 4.356 L -4.712,-29.607 V 0 Z"
             style="fill:#333333;fill-opacity:1;fill-rule:nonzero;stroke:none"
             id="path22" />
        </g>
        <g
           id="g24"
           transform="translate(441.6309,82.8357)">
          <path
             d="m 0,0 h -5.111 v -17.586 h -4.812 v 38.387 h 4.812 V 4.512 h 5.086 l 12.296,16.289 h 6.132 L 4.362,2.338 19.684,-17.586 h -6.182 z"
             style="fill:#333333;fill-opacity:1;fill-rule:nonzero;stroke:none"
             id="path26" />
        </g>
        <g
           id="g28"
           transform="translate(499.1729,84.4392)">
          <path
             d="m 0,0 c 0,8.66 -6.446,15.135 -15.177,15.135 -8.73,0 -15.176,-6.53 -15.176,-15.135 0,-8.602 6.446,-15.127 15.176,-15.127 C -6.446,-15.127 0,-8.658 0,0 m -35.265,0 c 0,11.342 8.472,19.848 20.088,19.848 11.617,0 20.088,-8.502 20.088,-19.848 0,-11.344 -8.471,-19.838 -20.088,-19.838 -11.616,0 -20.088,8.5 -20.088,19.838"
             style="fill:#333333;fill-opacity:1;fill-rule:nonzero;stroke:none"
             id="path30" />
        </g>
        <g
           id="g32"
           transform="translate(518.3838,84.8337)">
          <path
             d="m 0,0 h 9.499 c 4.701,0 7.842,2.967 7.842,7.119 0,4.108 -3.147,7.123 -7.842,7.123 H 0 Z M 8.74,-4.562 H 0 V -19.584 H -4.812 V 18.803 H 9.749 c 7.182,0 12.503,-4.891 12.503,-11.735 0,-5.396 -3.415,-9.611 -8.465,-11.074 l 9.188,-15.578 h -5.423 z"
             style="fill:#333333;fill-opacity:1;fill-rule:nonzero;stroke:none"
             id="path34" />
        </g>
        <g
           id="g36"
           transform="translate(590.8447,65.2497)">
          <path
             d="M 0,0 -4.988,29.984 -18.223,0.977 h -1.29 L -32.751,29.951 -37.786,0 h -4.911 l 6.459,38.387 h 4.642 l 12.678,-28.172 12.732,28.172 h 4.743 L 4.912,0 Z"
             style="fill:#333333;fill-opacity:1;fill-rule:nonzero;stroke:none"
             id="path38" />
        </g>
        <g
           id="g40"
           transform="translate(621.4102,107.9431)">
          <path
             d="M 0,0 H -3.671 L 0.324,7.787 H 5.295 Z M -8.74,-29.09 H 6.104 l -7.489,18.158 z m 16.653,-4.412 h -18.448 l -3.753,-9.191 h -5.117 l 15.707,38.386 h 4.491 l 16.145,-38.386 h -5.216 z"
             style="fill:#333333;fill-opacity:1;fill-rule:nonzero;stroke:none"
             id="path42" />
        </g>
        <g
           id="g44"
           transform="translate(676.4434,103.6364)">
          <path
             d="m 0,0 v -38.387 h -4.057 l -21.846,29.959 v -29.959 h -4.711 V 0 h 4.356 L -4.712,-29.607 V 0 Z"
             style="fill:#333333;fill-opacity:1;fill-rule:nonzero;stroke:none"
             id="path46" />
        </g>
        <g
           id="g48"
           transform="translate(703.2041,80.5564)">
          <path
             d="M 0,0 V -15.307 H -4.962 V 0.006 l -14.06,23.074 h 5.271 L -2.453,4.541 8.904,23.08 h 5.272 z"
             style="fill:#333333;fill-opacity:1;fill-rule:nonzero;stroke:none"
             id="path50" />
        </g>
        <g
           id="g52"
           transform="translate(750.8594,69.7595)">
          <path
             d="m 0,0 v -4.51 h -28.018 v 0.828 l 19.829,33.049 h -18.96 v 4.51 h 26.558 v -0.92 L -20.351,0 Z"
             style="fill:#333333;fill-opacity:1;fill-rule:nonzero;stroke:none"
             id="path54" />
        </g>
        <g
           id="g56"
           transform="translate(767.2217,78.8532)">
          <path
             d="M 0,0 H 14.844 L 7.355,18.158 Z M 16.653,-4.412 H -1.795 l -3.753,-9.192 h -5.117 L 5.042,24.783 h 4.491 l 16.146,-38.387 h -5.217 z"
             style="fill:#333333;fill-opacity:1;fill-rule:nonzero;stroke:none"
             id="path58" />
        </g>
        <g
           id="g60"
           transform="translate(820.3896,99.1267)">
          <path
             d="m 0,0 h -11.682 v -33.877 h -4.811 V 0 H -28.175 V 4.51 H 0 Z"
             style="fill:#333333;fill-opacity:1;fill-rule:nonzero;stroke:none"
             id="path62" />
        </g>
        <g
           id="g64"
           transform="translate(384.8525,166.0715)">
          <path
             d="m 0,0 c 0,12.695 -3.968,17.197 -14.022,17.197 h -9.998 v -31.232 c 0,-1.982 0.84,-2.813 2.827,-2.813 h 7.065 C -3.632,-16.848 0,-12.698 0,0 m -21.193,52.24 c -1.987,0 -2.827,-0.831 -2.827,-2.813 V 19.198 h 9.998 c 8.239,0 11.923,4.647 11.923,16.715 0,12.03 -3.34,16.327 -11.818,16.327 z M 17.925,0 c 0,-13.03 -9.017,-18.85 -29.152,-18.85 h -37.259 c -0.329,0 -0.595,0.233 -0.595,0.594 v 0.813 c 0,0.362 0.232,0.595 0.595,0.595 h 4.337 c 2.163,0 3.35,1.197 3.35,3.381 v 62.325 c 0,2.184 -1.187,3.382 -3.35,3.382 h -4.337 c -0.363,0 -0.595,0.233 -0.595,0.594 v 0.812 c 0,0.363 0.266,0.595 0.595,0.595 h 37.47 c 17.287,0 25.184,-5.772 25.184,-18.328 0,-10.845 -6.622,-16.502 -20.689,-17.342 V 18.062 C 10.298,17.404 17.925,11.692 17.925,0"
             style="fill:#333333;fill-opacity:1;fill-rule:nonzero;stroke:none"
             id="path66" />
        </g>
        <g
           id="g68"
           transform="translate(419.7627,171.6574)">
          <path
             d="m 0,0 v 43.272 c 0,2.184 -1.187,3.382 -3.35,3.382 h -4.337 c -0.363,0 -0.595,0.233 -0.595,0.594 v 0.813 c 0,0.362 0.265,0.594 0.595,0.594 h 31.671 c 0.395,0 0.661,-0.264 0.661,-0.658 v -0.685 c 0,-0.394 -0.266,-0.658 -0.661,-0.658 h -4.106 c -2.05,0 -3.099,-1.048 -3.099,-3.095 V -1.396 c 0,-13.528 6.538,-20.235 19.727,-20.235 12.822,0 19.704,7.624 19.704,21.578 v 43.612 c 0,2.047 -1.048,3.095 -3.097,3.095 h -4.108 c -0.394,0 -0.659,0.264 -0.659,0.658 v 0.685 c 0,0.394 0.265,0.658 0.659,0.658 h 17.023 c 0.329,0 0.595,-0.232 0.595,-0.594 v -0.813 c 0,-0.361 -0.233,-0.594 -0.595,-0.594 H 61.69 c -2.162,0 -3.349,-1.198 -3.349,-3.382 V -0.02 c 0,-17.3 -9.633,-25.877 -29.107,-25.877 C 9.688,-25.897 0,-17.314 0,0"
             style="fill:#333333;fill-opacity:1;fill-rule:nonzero;stroke:none"
             id="path70" />
        </g>
        <g
           id="g72"
           transform="translate(551.2539,184.0803)">
          <path
             d="m 0,0 c 0,26.765 -5.824,34.231 -17.81,34.231 h -7.582 c -1.975,0 -2.826,-0.841 -2.826,-2.813 v -63.462 c 0,-1.972 0.851,-2.812 2.826,-2.812 h 7.371 C -5.896,-34.856 0,-27.552 0,0 m 18.442,0.053 c 0,-24.197 -14.189,-36.911 -35.945,-36.911 h -35.182 c -0.329,0 -0.594,0.232 -0.594,0.593 v 0.813 c 0,0.362 0.232,0.596 0.594,0.596 h 4.337 c 2.163,0 3.351,1.196 3.351,3.38 V 30.85 c 0,2.183 -1.188,3.381 -3.351,3.381 h -4.337 c -0.362,0 -0.594,0.233 -0.594,0.594 v 0.813 c 0,0.362 0.265,0.594 0.594,0.594 h 35.393 c 22.065,0 35.734,-13.29 35.734,-36.179"
             style="fill:#333333;fill-opacity:1;fill-rule:nonzero;stroke:none"
             id="path74" />
        </g>
        <g
           id="g76"
           transform="translate(616.2227,169.9397)">
          <path
             d="M 0,0 -13.009,35.237 -26.061,0 Z m 32.42,-21.312 v -0.812 c 0,-0.361 -0.266,-0.594 -0.595,-0.594 H 0.033 c -0.328,0 -0.595,0.233 -0.595,0.594 v 0.812 c 0,0.363 0.233,0.596 0.595,0.596 h 4.594 c 1.997,0 2.651,1.007 1.876,3.104 l -5.764,15.61 h -27.543 l -5.774,-15.592 c -0.783,-2.107 -0.119,-3.122 1.835,-3.122 h 4.658 c 0.362,0 0.595,-0.233 0.595,-0.596 v -0.812 c 0,-0.361 -0.265,-0.594 -0.595,-0.594 h -16.448 c -0.33,0 -0.596,0.233 -0.596,0.594 v 0.812 c 0,0.363 0.233,0.596 0.596,0.596 h 2.808 c 2.834,0 4.161,0.865 5.023,3.178 l 25.111,67.353 c 0.132,0.353 0.461,0.558 0.804,0.558 h 6.69 c 0.343,0 0.672,-0.205 0.805,-0.558 l 25.248,-67.267 c 0.891,-2.374 2.224,-3.264 5.06,-3.264 h 2.809 c 0.362,0 0.595,-0.233 0.595,-0.596"
             style="fill:#333333;fill-opacity:1;fill-rule:nonzero;stroke:none"
             id="path78" />
        </g>
        <g
           id="g80"
           transform="translate(676.6709,147.7795)">
          <path
             d="m 0,0 -24.913,67.252 c -0.886,2.392 -2.234,3.28 -5.043,3.28 h -2.836 c -0.361,0 -0.596,0.233 -0.596,0.594 v 0.812 c 0,0.363 0.263,0.595 0.596,0.595 h 31.85 c 0.333,0 0.595,-0.232 0.595,-0.595 v -0.812 c 0,-0.361 -0.234,-0.594 -0.595,-0.594 h -4.617 c -1.976,0 -2.6,-0.996 -1.834,-3.095 L 11.669,15.252 30.466,67.424 c 0.759,2.112 0.131,3.108 -1.809,3.108 h -4.635 c -0.362,0 -0.594,0.233 -0.594,0.594 v 0.812 c 0,0.363 0.26,0.595 0.594,0.595 h 16.517 c 0.333,0 0.594,-0.232 0.594,-0.595 v -0.812 c 0,-0.361 -0.233,-0.594 -0.594,-0.594 h -2.836 c -2.806,0 -4.162,-0.855 -5.003,-3.181 L 8.356,0.002 C 8.229,-0.351 7.901,-0.558 7.56,-0.558 H 0.802 C 0.459,-0.558 0.13,-0.352 0,0"
             style="fill:#333333;fill-opacity:1;fill-rule:nonzero;stroke:none"
             id="path82" />
        </g>
        <g
           id="g84"
           transform="translate(740.6514,226.2903)">
          <path
             d="m 0,0 c -0.139,0.312 -0.065,0.675 0.233,0.902 2.38,1.796 13.015,9.752 17.263,11.623 3.593,1.585 6.396,0.969 7.482,-1.556 C 26.071,8.425 24.601,5.916 21.009,4.331 16.762,2.46 3.818,-0.049 0.9,-0.601 0.563,-0.663 0.227,-0.509 0.074,-0.166 Z M 14.855,-56.351 1.847,-21.113 -11.205,-56.351 Z m 32.42,-21.311 v -0.813 c 0,-0.361 -0.265,-0.593 -0.594,-0.593 H 14.889 c -0.328,0 -0.595,0.232 -0.595,0.593 v 0.813 c 0,0.362 0.232,0.596 0.595,0.596 h 4.593 c 1.997,0 2.652,1.006 1.876,3.103 l -5.763,15.61 h -27.543 l -5.775,-15.591 c -0.783,-2.108 -0.119,-3.122 1.835,-3.122 h 4.659 c 0.362,0 0.594,-0.234 0.594,-0.596 v -0.813 c 0,-0.361 -0.264,-0.593 -0.594,-0.593 h -16.449 c -0.33,0 -0.595,0.232 -0.595,0.593 v 0.813 c 0,0.362 0.233,0.596 0.595,0.596 h 2.809 c 2.834,0 4.16,0.865 5.022,3.177 L 5.265,-6.535 c 0.131,0.352 0.461,0.557 0.803,0.557 h 6.691 c 0.343,0 0.672,-0.205 0.804,-0.557 l 25.249,-67.268 c 0.89,-2.374 2.223,-3.263 5.059,-3.263 h 2.81 c 0.361,0 0.594,-0.234 0.594,-0.596"
             style="fill:#333333;fill-opacity:1;fill-rule:nonzero;stroke:none"
             id="path86" />
        </g>
        <g
           id="g88"
           transform="translate(844.6182,200.4738)">
          <path
             d="m 0,0 c 0,13.667 -3.291,17.838 -12.131,17.838 h -7.435 c -1.987,0 -2.827,-0.831 -2.827,-2.814 v -33.569 h 10.157 C -3.331,-18.545 0,-14.42 0,0 m 25.09,-51.846 v -0.812 c 0,-0.342 -0.219,-0.594 -0.594,-0.594 h -10.31 c -12.429,0 -14.943,2.442 -17.665,17.339 -2.4,13.135 -4.396,15.366 -10.868,15.366 h -8.046 v -27.322 c 0,-2.185 1.188,-3.381 3.352,-3.381 h 4.336 c 0.362,0 0.595,-0.233 0.595,-0.596 v -0.812 c 0,-0.362 -0.265,-0.594 -0.595,-0.594 h -32.154 c -0.329,0 -0.595,0.232 -0.595,0.594 v 0.812 c 0,0.363 0.232,0.596 0.595,0.596 h 4.337 c 2.163,0 3.35,1.196 3.35,3.381 v 62.325 c 0,2.184 -1.187,3.382 -3.35,3.382 h -4.337 c -0.363,0 -0.595,0.232 -0.595,0.594 v 0.812 c 0,0.362 0.266,0.595 0.595,0.595 h 40.531 c 15.354,0 23.319,-6.778 23.319,-19.839 0,-12.628 -7.48,-18.883 -23.595,-19.67 v -0.528 c 13.249,-0.364 18.067,-4.11 20.371,-16.353 2.515,-12.295 3.092,-14.699 9.224,-14.699 h 1.505 c 0.375,0 0.594,-0.253 0.594,-0.596"
             style="fill:#333333;fill-opacity:1;fill-rule:nonzero;stroke:none"
             id="path90" />
        </g>
        <g
           id="g92"
           transform="translate(881.0586,147.8156)">
          <path
             d="m 0,0 v 0.812 c 0,0.363 0.232,0.596 0.595,0.596 h 4.337 c 2.163,0 3.35,1.196 3.35,3.381 v 62.325 c 0,2.184 -1.187,3.382 -3.35,3.382 H 0.595 C 0.232,70.496 0,70.729 0,71.09 v 0.812 c 0,0.363 0.266,0.595 0.595,0.595 h 31.982 c 0.394,0 0.659,-0.265 0.659,-0.658 v -0.686 c 0,-0.393 -0.265,-0.657 -0.659,-0.657 H 28.47 c -2.05,0 -3.098,-1.048 -3.098,-3.096 V 4.503 c 0,-2.049 1.048,-3.095 3.098,-3.095 h 4.107 c 0.394,0 0.659,-0.265 0.659,-0.659 V 0.064 c 0,-0.393 -0.265,-0.658 -0.659,-0.658 H 0.595 C 0.266,-0.594 0,-0.361 0,0"
             style="fill:#333333;fill-opacity:1;fill-rule:nonzero;stroke:none"
             id="path94" />
        </g>
        <g
           id="g96"
           transform="translate(63.1148,63.9682)">
          <path
             d="M 0,0 -19.218,-19.533"
             style="fill:none;stroke:#333333;stroke-width:5.669;stroke-linecap:butt;stroke-linejoin:miter;stroke-miterlimit:10;stroke-dasharray:none;stroke-opacity:1"
             id="path98" />
        </g>
        <g
           id="g100"
           transform="translate(219.8906,63.9682)">
          <path
             d="M 0,0 19.108,-19.533"
             style="fill:none;stroke:#333333;stroke-width:5.669;stroke-linecap:butt;stroke-linejoin:miter;stroke-miterlimit:10;stroke-dasharray:none;stroke-opacity:1"
             id="path102" />
        </g>
        <g
           id="g104"
           transform="translate(279.0521,141.8001)">
          <path
             d="m 0,0 c 0,-75.992 -61.604,-137.596 -137.596,-137.596 -75.992,0 -137.595,61.604 -137.595,137.596 0,75.992 61.603,137.596 137.595,137.596 C -61.604,137.596 0,75.992 0,0 Z"
             style="fill:none;stroke:#333333;stroke-width:5.669;stroke-linecap:butt;stroke-linejoin:miter;stroke-miterlimit:10;stroke-dasharray:none;stroke-opacity:1"
             id="path106" />
        </g>
        <g
           id="g108"
           transform="translate(100.1372,44.3688)">
          <path
             d="M 0,0 H 82.455"
             style="fill:none;stroke:#333333;stroke-width:5.669;stroke-linecap:round;stroke-linejoin:miter;stroke-miterlimit:10;stroke-dasharray:none;stroke-opacity:1"
             id="path110" />
        </g>
        <g
           id="g112"
           transform="translate(119.8673,24.7706)">
          <path
             d="M 0,0 H 43.549"
             style="fill:none;stroke:#333333;stroke-width:5.669;stroke-linecap:round;stroke-linejoin:miter;stroke-miterlimit:10;stroke-dasharray:none;stroke-opacity:1"
             id="path114" />
        </g>
        <g
           id="g116"
           transform="translate(102.3088,161.953)">
          <path
             d="M 0,0 H -39.194 117.582 V -97.985 H -39.194 V 0 60.89 H 0 Z"
             style="fill:none;stroke:#333333;stroke-width:5.669;stroke-linecap:square;stroke-linejoin:round;stroke-miterlimit:10;stroke-dasharray:none;stroke-opacity:1"
             id="path118" />
        </g>
        <g
           id="g120"
           transform="translate(219.8869,222.9786)">
          <path
             d="m 0,0 h -39.194 v -61.026 l 39.198,0.001 z"
             style="fill:none;stroke:#333333;stroke-width:5.669;stroke-linecap:butt;stroke-linejoin:round;stroke-miterlimit:10;stroke-dasharray:none;stroke-opacity:1"
             id="path122" />
        </g>
        <g
           id="g124"
           transform="translate(192.5086,174.2304)">
          <path
             d="m 0,0 v 15.566 c 0,4.281 3.502,7.784 7.783,7.784 v 0 c 4.281,0 7.783,-3.503 7.783,-7.784 V 0 Z"
             style="fill:none;stroke:#333333;stroke-width:5.669;stroke-linecap:butt;stroke-linejoin:miter;stroke-miterlimit:10;stroke-dasharray:none;stroke-opacity:1"
             id="path126" />
        </g>
        <g
           id="g128"
           transform="translate(63.1148,142.4487)">
          <path
             d="M 0,0 H 39.678"
             style="fill:none;stroke:#333333;stroke-width:5.669;stroke-linecap:butt;stroke-linejoin:miter;stroke-miterlimit:10;stroke-dasharray:none;stroke-opacity:1"
             id="path130" />
        </g>
        <g
           id="g132"
           transform="translate(180.2128,142.4487)">
          <path
             d="M 0,0 H 39.678"
             style="fill:none;stroke:#333333;stroke-width:5.669;stroke-linecap:butt;stroke-linejoin:miter;stroke-miterlimit:10;stroke-dasharray:none;stroke-opacity:1"
             id="path134" />
        </g>
        <g
           id="g136"
           transform="translate(63.1148,122.7591)">
          <path
             d="M 0,0 H 37.111"
             style="fill:none;stroke:#333333;stroke-width:5.669;stroke-linecap:butt;stroke-linejoin:miter;stroke-miterlimit:10;stroke-dasharray:none;stroke-opacity:1"
             id="path138" />
        </g>
        <g
           id="g140"
           transform="translate(182.4589,122.7591)">
          <path
             d="M 0,0 H 37.432"
             style="fill:none;stroke:#333333;stroke-width:5.669;stroke-linecap:butt;stroke-linejoin:miter;stroke-miterlimit:10;stroke-dasharray:none;stroke-opacity:1"
             id="path142" />
        </g>
        <g
           id="g144"
           transform="translate(63.1148,103.1621)">
          <path
             d="M 0,0 H 37.262"
             style="fill:none;stroke:#333333;stroke-width:5.669;stroke-linecap:butt;stroke-linejoin:miter;stroke-miterlimit:10;stroke-dasharray:none;stroke-opacity:1"
             id="path146" />
        </g>
        <g
           id="g148"
           transform="translate(182.4589,103.1621)">
          <path
             d="M 0,0 H 37.432"
             style="fill:none;stroke:#333333;stroke-width:5.669;stroke-linecap:butt;stroke-linejoin:miter;stroke-miterlimit:10;stroke-dasharray:none;stroke-opacity:1"
             id="path150" />
        </g>
        <path
           d="M 121.906,161.953 H 161.1 v 61.026 h -39.194 z"
           style="fill:none;stroke:#333333;stroke-width:5.669;stroke-linecap:butt;stroke-linejoin:round;stroke-miterlimit:10;stroke-dasharray:none;stroke-opacity:1"
           id="path152" />
        <g
           id="g154"
           transform="translate(74.9981,174.2304)">
          <path
             d="m 0,0 v 15.566 c 0,4.281 3.502,7.784 7.783,7.784 v 0 c 4.281,0 7.783,-3.503 7.783,-7.784 V 0 Z"
             style="fill:none;stroke:#333333;stroke-width:5.669;stroke-linecap:butt;stroke-linejoin:miter;stroke-miterlimit:10;stroke-dasharray:none;stroke-opacity:1"
             id="path156" />
        </g>
        <g
           id="g158"
           transform="translate(133.7195,174.2304)">
          <path
             d="m 0,0 v 15.566 c 0,4.281 3.502,7.784 7.783,7.784 v 0 c 4.281,0 7.783,-3.503 7.783,-7.784 V 0 Z"
             style="fill:none;stroke:#333333;stroke-width:5.669;stroke-linecap:butt;stroke-linejoin:miter;stroke-miterlimit:10;stroke-dasharray:none;stroke-opacity:1"
             id="path160" />
        </g>
        <g
           id="g162"
           transform="translate(63.1148,83.5652)">
          <path
             d="M 0,0 H 37.262"
             style="fill:none;stroke:#333333;stroke-width:5.669;stroke-linecap:butt;stroke-linejoin:miter;stroke-miterlimit:10;stroke-dasharray:none;stroke-opacity:1"
             id="path164" />
        </g>
        <g
           id="g166"
           transform="translate(182.4589,83.5652)">
          <path
             d="M 0,0 H 37.432"
             style="fill:none;stroke:#333333;stroke-width:5.669;stroke-linecap:butt;stroke-linejoin:miter;stroke-miterlimit:10;stroke-dasharray:none;stroke-opacity:1"
             id="path168" />
        </g>
        <g
           id="g170"
           transform="translate(182.4589,133.5819)">
          <path
             d="M 0,0 C -0.01,0 -0.139,0 -0.15,0 -11.296,-0.079 -20.739,-8.92 -20.739,-20.066 V -69.614 H 0 V 0.065 c 0,15.568 -25.559,28.306 -41.019,28.306 v 0 c -15.459,0 -41.063,-12.738 -41.063,-28.306 v -69.679 h 20.739 v 49.548 c 0,11.171 -9.487,20.028 -20.667,20.066 -0.006,0 -0.066,0 -0.072,0"
             style="fill:none;stroke:#333333;stroke-width:5.669;stroke-linecap:round;stroke-linejoin:miter;stroke-miterlimit:10;stroke-dasharray:none;stroke-opacity:1"
             id="path172" />
        </g>
        <g
           id="g174"
           transform="translate(121.6278,157.0885)">
          <path
             d="M 0,0 10.433,-27.243"
             style="fill:none;stroke:#333333;stroke-width:5.669;stroke-linecap:round;stroke-linejoin:miter;stroke-miterlimit:10;stroke-dasharray:none;stroke-opacity:1"
             id="path176" />
        </g>
        <g
           id="g178"
           transform="translate(161.4199,157.0885)">
          <path
             d="M 0,0 -10.433,-27.243"
             style="fill:none;stroke:#333333;stroke-width:5.669;stroke-linecap:round;stroke-linejoin:miter;stroke-miterlimit:10;stroke-dasharray:none;stroke-opacity:1"
             id="path180" />
        </g>
        <g
           id="g182"
           transform="translate(111.3428,103.1621)">
          <path
             d="M 0,0 H 9.822"
             style="fill:none;stroke:#333333;stroke-width:5.669;stroke-linecap:round;stroke-linejoin:miter;stroke-miterlimit:10;stroke-dasharray:none;stroke-opacity:1"
             id="path184" />
        </g>
        <g
           id="g186"
           transform="translate(135.1985,107.6267)">
          <path
             d="M 0,0 V 23.61"
             style="fill:none;stroke:#333333;stroke-width:5.669;stroke-linecap:round;stroke-linejoin:miter;stroke-miterlimit:10;stroke-dasharray:none;stroke-opacity:1"
             id="path188" />
        </g>
        <g
           id="g190"
           transform="translate(76.4067,209.522)">
          <path
             d="M 0,0 V 13.321"
             style="fill:none;stroke:#333333;stroke-width:5.669;stroke-linecap:round;stroke-linejoin:miter;stroke-miterlimit:10;stroke-dasharray:none;stroke-opacity:1"
             id="path192" />
        </g>
        <g
           id="g194"
           transform="translate(89.137,209.522)">
          <path
             d="M 0,0 V 13.321"
             style="fill:none;stroke:#333333;stroke-width:5.669;stroke-linecap:round;stroke-linejoin:miter;stroke-miterlimit:10;stroke-dasharray:none;stroke-opacity:1"
             id="path196" />
        </g>
        <g
           id="g198"
           transform="translate(135.0827,209.522)">
          <path
             d="M 0,0 V 13.457"
             style="fill:none;stroke:#333333;stroke-width:5.669;stroke-linecap:round;stroke-linejoin:miter;stroke-miterlimit:10;stroke-dasharray:none;stroke-opacity:1"
             id="path200" />
        </g>
        <g
           id="g202"
           transform="translate(147.813,209.522)">
          <path
             d="M 0,0 V 13.457"
             style="fill:none;stroke:#333333;stroke-width:5.669;stroke-linecap:round;stroke-linejoin:miter;stroke-miterlimit:10;stroke-dasharray:none;stroke-opacity:1"
             id="path204" />
        </g>
        <g
           id="g206"
           transform="translate(193.9266,209.522)">
          <path
             d="M 0,0 V 13.457"
             style="fill:none;stroke:#333333;stroke-width:5.669;stroke-linecap:round;stroke-linejoin:miter;stroke-miterlimit:10;stroke-dasharray:none;stroke-opacity:1"
             id="path208" />
        </g>
        <g
           id="g210"
           transform="translate(206.6569,209.522)">
          <path
             d="M 0,0 V 13.457"
             style="fill:none;stroke:#333333;stroke-width:5.669;stroke-linecap:round;stroke-linejoin:miter;stroke-miterlimit:10;stroke-dasharray:none;stroke-opacity:1"
             id="path212" />
        </g>
        <g
           id="g214"
           transform="translate(147.8292,107.6039)">
          <path
             d="M 0,0 V 23.61"
             style="fill:none;stroke:#333333;stroke-width:5.669;stroke-linecap:round;stroke-linejoin:miter;stroke-miterlimit:10;stroke-dasharray:none;stroke-opacity:1"
             id="path216" />
        </g>
        <g
           id="g218"
           transform="translate(111.3428,83.5652)">
          <path
             d="M 0,0 H 9.822"
             style="fill:none;stroke:#333333;stroke-width:5.669;stroke-linecap:round;stroke-linejoin:miter;stroke-miterlimit:10;stroke-dasharray:none;stroke-opacity:1"
             id="path220" />
        </g>
        <g
           id="g222"
           transform="translate(161.6755,103.2093)">
          <path
             d="M 0,0 H 10.153"
             style="fill:none;stroke:#333333;stroke-width:5.669;stroke-linecap:round;stroke-linejoin:miter;stroke-miterlimit:10;stroke-dasharray:none;stroke-opacity:1"
             id="path224" />
        </g>
        <g
           id="g226"
           transform="translate(161.6755,83.6123)">
          <path
             d="M 0,0 H 10.153"
             style="fill:none;stroke:#333333;stroke-width:5.669;stroke-linecap:round;stroke-linejoin:miter;stroke-miterlimit:10;stroke-dasharray:none;stroke-opacity:1"
             id="path228" />
        </g>
        <g
           id="g230"
           transform="translate(121.5242,115.9954)">
          <path
             d="M 0,0 H 39.846"
             style="fill:none;stroke:#333333;stroke-width:5.669;stroke-linecap:butt;stroke-linejoin:miter;stroke-miterlimit:10;stroke-dasharray:none;stroke-opacity:1"
             id="path232" />
        </g>
        <g
           id="g234"
           transform="translate(121.1155,63.9682)">
          <path
             d="m 0,0 0.049,48.371 c 0,10.929 9.455,19.871 20.384,19.871 h 0.001 C 31.362,68.242 40.56,59.3 40.56,48.371 V 0 Z"
             style="fill:none;stroke:#333333;stroke-width:5.669;stroke-linecap:butt;stroke-linejoin:miter;stroke-miterlimit:10;stroke-dasharray:none;stroke-opacity:1"
             id="path236" />
        </g>
        <g
           id="g238"
           transform="translate(123.973,248.0103)">
          <path
             d="M 0,0 23.586,9.77"
             style="fill:none;stroke:#333333;stroke-width:5.669;stroke-linecap:round;stroke-linejoin:round;stroke-miterlimit:10;stroke-dasharray:none;stroke-opacity:1"
             id="path240" />
        </g>
        <g
           id="g242"
           transform="translate(142.0791,237.6546)">
          <path
             d="M 0,0 -10.372,25.041"
             style="fill:none;stroke:#333333;stroke-width:5.669;stroke-linecap:round;stroke-linejoin:round;stroke-miterlimit:10;stroke-dasharray:none;stroke-opacity:1"
             id="path244" />
        </g>
      </g>
    </g>
  </g>
</svg>
