<?xml version="1.0" encoding="UTF-8"?> <svg xmlns="http://www.w3.org/2000/svg" width="756" height="379" viewBox="0 0 756 379" fill="none"><path d="M234.9 110.2C242.9 104.6 246.9 96.4999 246.9 85.7999C246.9 78.8999 245.1 73.4999 241.5 69.5999C237.9 65.6999 233.4 62.5999 228 60.2999C222.6 57.9999 216.7 56.2999 210.4 55.0999C204.1 53.8999 198.2 52.4999 192.8 51.0999C187.4 49.6999 182.9 47.7999 179.3 45.4999C175.7 43.1999 173.9 39.8999 173.9 35.4999C173.9 24.9999 182.3 19.7 199.2 19.7C216 19.7 225.2 25.3999 226.7 36.7999H243.3C242.3 27.8999 238.6 20.7999 232.1 15.2999C224.4 8.89993 213.8 5.69995 200.4 5.69995C186.2 5.69995 175.6 8.39993 168.3 13.8999C161 19.3999 157.7 26.9999 157.7 36.9999C157.7 43.6999 159.5 48.9999 163.1 52.7999C166.7 56.5999 171.2 59.5999 176.6 61.7999C182 63.9999 187.9 65.6999 194.2 66.8999C200.5 68.0999 206.4 69.4999 211.8 71.0999C217.2 72.6999 221.7 74.5999 225.3 76.9999C228.9 79.3999 230.7 82.8999 230.7 87.3999C230.7 94.0999 227.2 98.8999 220.2 101.6C217.1 102.8 214 103.6 210.8 104C207.6 104.4 204.1 104.7 200.4 104.7C196.7 104.7 192.9 104.1 189.1 102.9C178.7 99.4 173.1 92.5999 172 82.5999H154.9C155.5 92.9999 159.7 101.4 167.6 107.8C176.2 115.1 187.8 118.7 202.4 118.7C216 118.6 226.9 115.8 234.9 110.2Z" fill="#1A171B"></path><path d="M344.2 101.5H278.6L344.2 22.7V7.40002H258.9V22.5H323.4L258 101.3V116.8H344.2V101.5Z" fill="#1A171B"></path><path d="M148.1 200.3C148.1 210.1 144.9 218.1 138.5 224.4C132.1 230.5 124.3 233.6 115.1 233.6C106.1 233.6 98.7 230.6 93 224.6C87.3 218.6 84.5 210.6 84.5 200.5V137.3H68V201C68 215.6 72.5 227.3 81.6 236.2C85.5 240.3 90.1 243.4 95.4 245.4C100.7 247.4 106.9 248.5 114.2 248.5C121.5 248.5 128 246.7 133.7 243C139.4 239.3 144.2 234.9 148.2 229.7V246.8H164.6V137.3H148.2V200.3H148.1Z" fill="#1A171B"></path><path d="M285.9 137.3H267.9L233.6 229.2L199 137.3H181L223.9 246.7H243.2L285.9 137.3Z" fill="#1A171B"></path><path d="M398.4 215.2H380.4C374 227.5 363.4 233.6 348.7 233.6C337.9 233.6 329 230.2 322 223.5C315.1 216.9 311.1 208.6 310 198.5H401.7V192C401.7 175.8 396.9 162.5 387.2 152C377 141.1 363.7 135.6 347.4 135.6C331.1 135.6 317.8 141.1 307.6 152C298 162.5 293.1 175.9 293.1 192C293.1 208 298.1 221.4 308.2 232C318.6 242.9 332 248.4 348.5 248.4C361.5 248.4 372.1 245.3 380.3 239.2C388.6 233.1 394.6 225.1 398.4 215.2ZM322 159.8C328.9 153.5 337.3 150.4 347.4 150.4C357.5 150.4 365.9 153.5 372.8 159.8C379.2 165.8 383.2 173.6 384.6 183.2H310.2C311.6 173.6 315.6 165.8 322 159.8Z" fill="#1A171B"></path><path d="M598.1 248.5C611.1 248.5 621.7 245.4 629.9 239.3C638.1 233.2 644.2 225.1 648 215.2H630.1C623.7 227.5 613.1 233.6 598.4 233.6C587.6 233.6 578.7 230.2 571.7 223.5C564.8 216.9 560.8 208.6 559.7 198.5H651.4V192C651.4 175.8 646.6 162.5 637 152C626.8 141.1 613.5 135.6 597.2 135.6C580.9 135.6 567.6 141.1 557.4 152C547.8 162.5 543 175.9 543 192C543 208 548 221.4 558.1 232C568.2 243 581.6 248.5 598.1 248.5ZM571.6 159.8C578.5 153.5 586.9 150.4 597 150.4C607.1 150.4 615.5 153.5 622.4 159.8C628.8 165.8 632.8 173.6 634.2 183.2H559.8C561.2 173.6 565.2 165.8 571.6 159.8Z" fill="#1A171B"></path><path d="M750.5 199.4C746.9 195.5 742.4 192.4 737 190.1C731.6 187.8 725.7 186.1 719.4 184.9C713.1 183.7 707.2 182.3 701.8 180.9C696.4 179.4 691.9 177.6 688.3 175.3C684.7 173 682.9 169.7 682.9 165.3C682.9 154.8 691.3 149.5 708.2 149.5C725.1 149.5 734.2 155.2 735.7 166.6H752.3C751.3 157.7 747.6 150.6 741.1 145.1C733.4 138.7 722.8 135.5 709.4 135.5C695.2 135.5 684.6 138.2 677.3 143.7C670.1 149.2 666.5 156.9 666.5 166.8C666.5 173.5 668.3 178.8 671.9 182.6C675.5 186.4 680 189.4 685.4 191.6C690.8 193.8 696.7 195.5 703 196.8C709.3 198 715.2 199.4 720.6 201C726 202.5 730.5 204.5 734.1 206.9C737.7 209.3 739.5 212.8 739.5 217.3C739.5 224 736 228.8 729 231.5C725.9 232.7 722.8 233.5 719.6 233.9C716.4 234.3 712.9 234.6 709.2 234.6C705.5 234.6 701.7 234 697.9 232.8C687.5 229.3 681.8 222.5 680.8 212.5H663.7C664.3 222.9 668.5 231.3 676.4 237.7C685 245 696.6 248.6 711.2 248.6C724.9 248.6 735.8 245.8 743.8 240.2C751.8 234.6 755.8 226.4 755.8 215.8C755.9 208.8 754.1 203.4 750.5 199.4Z" fill="#1A171B"></path><path d="M310.4 320C305 317.7 299.1 316 292.8 314.8C286.5 313.6 280.6 312.2 275.2 310.8C269.8 309.3 265.3 307.5 261.7 305.2C258.1 302.9 256.3 299.6 256.3 295.2C256.3 284.7 264.7 279.4 281.6 279.4C298.4 279.4 307.6 285.1 309.1 296.5H325.7C324.7 287.6 321 280.5 314.5 275C306.8 268.6 296.2 265.4 282.8 265.4C268.6 265.4 258 268.1 250.7 273.6C243.5 279.1 239.9 286.8 239.9 296.7C239.9 303.4 241.7 308.7 245.3 312.5C248.9 316.3 253.4 319.3 258.8 321.5C264.2 323.7 270.1 325.4 276.4 326.6C282.7 327.8 288.6 329.2 294 330.8C299.4 332.3 303.9 334.3 307.5 336.7C311.1 339.1 312.9 342.6 312.9 347.1C312.9 353.8 309.4 358.6 302.4 361.3C299.3 362.5 296.2 363.3 293 363.7C289.8 364.1 286.3 364.4 282.6 364.4C278.9 364.4 275.1 363.8 271.3 362.6C260.9 359.1 255.3 352.3 254.2 342.3H237.1C237.7 352.7 241.9 361.1 249.8 367.5C258.4 374.8 270 378.4 284.6 378.4C298.3 378.4 309.2 375.6 317.2 370C325.2 364.4 329.2 356.2 329.2 345.6C329.2 338.7 327.4 333.3 323.8 329.4C320.3 325.3 315.8 322.2 310.4 320Z" fill="#1A171B"></path><path d="M390.7 268.9C379 274.3 371.4 282.7 367.9 294.1V267.2H351.5V376.6H367.9V328.4C367.9 315.9 371.4 305.1 378.4 296C385.8 286.5 395.5 281.8 407.3 281.8H409.3V265.4H408.2C401.3 265.4 395.5 266.5 390.7 268.9Z" fill="#1A171B"></path><path d="M585.9 283.5C590.8 281.3 596.7 280.2 603.7 280.2C610.7 280.2 616.9 282.2 622.3 286.1C627.7 290 631.6 295.1 634.1 301.4H651.8C648.4 290.6 642.3 281.9 633.4 275.4C624.1 268.7 613 265.3 600.1 265.3C584 265.3 571 270.8 560.9 281.7C551.1 292.4 546.2 305.7 546.2 321.7C546.2 337.7 551.1 351.1 560.9 361.7C571 372.6 584 378.1 600.1 378.1C612.9 378.1 624 374.7 633.4 368C642.3 361.4 648.4 352.8 651.8 342H634.1C631.6 348.3 627.7 353.4 622.3 357.3C616.9 361.2 610.7 363.2 603.7 363.2C590.9 363.2 580.8 359.1 573.5 350.9C566.3 343 562.8 333.2 562.8 321.6C562.8 309.9 566.4 300.1 573.5 292.3C576.9 288.7 581 285.7 585.9 283.5Z" fill="#1A171B"></path><path d="M92.2001 116.8H108.6V64.4C108.6 63.4 108.7 62.4 108.7 61.4C108.7 45.2 103.9 31.9 94.2001 21.4C84.0001 10.5 70.7001 5 54.4001 5C38.1001 5 24.8001 10.5 14.6001 21.4C5.0001 31.9 0.100098 45.3 0.100098 61.4C0.100098 77.5 4.9001 90.9 14.6001 101.4C24.8001 112.3 38.1001 117.8 54.4001 117.8C69.7001 117.8 82.3001 113 92.3001 103.4L92.2001 116.8ZM82.4001 90.7C75.5001 98.9 66.2001 103 54.4001 103C42.6001 103 33.2001 98.9 26.4001 90.7C19.8001 83 16.6001 73.2 16.6001 61.4C16.6001 49.6 19.9001 39.8 26.4001 32.1C33.3001 23.9 42.6001 19.8 54.4001 19.8C66.2001 19.8 75.6001 23.9 82.4001 32.1C89.0001 39.8 92.2001 49.6 92.2001 61.4C92.2001 73.2 89.0001 83 82.4001 90.7Z" fill="#1A171B"></path><path d="M139.9 98.7H123.5V116.9H139.9V98.7Z" fill="#1A171B"></path><path d="M558.1 51.4V116.8H574.5V51.6C574.5 42 577.4 34.4 583.2 28.9C588.7 23.5 595.6 20.8 603.9 20.8C611.7 20.8 618.2 23.6 623.3 29.1C628.4 34.9 630.9 42.3 630.9 51.3V116.7H647.3V51C647.3 37.9 643.2 27 635.1 18.3C631.3 14.4 627 11.4 622.1 9.29996C617.2 7.19996 612.1 6.09998 606.8 6.09998C601.5 6.09998 596.7 6.89997 592.5 8.49997C582 12.4 574.3 19 569.4 28.1C565.9 21.1 561.1 15.7 554.9 11.9C548.7 8.09996 542 6.09998 534.7 6.09998C519.9 6.09998 508.8 12.2 501.5 24.4V7.79996H485.1V116.9H501.5V51.7C501.5 42.1 504.4 34.5 510.2 29C515.7 23.6 522.6 20.9 530.9 20.9C538.7 20.9 545.2 23.7 550.3 29.2C555.5 35 558.1 42.4 558.1 51.4Z" fill="#1A171B"></path><path d="M333.9 68.7H361.6C362.8 81.9 367.7 93 376.4 102.2C386.8 113.1 400.2 118.6 416.7 118.6C429.7 118.6 440.3 115.5 448.5 109.4C456.7 103.3 462.8 95.3 466.6 85.3H448.6C442.2 97.6 431.6 103.7 416.9 103.7C406.1 103.7 397.2 100.3 390.2 93.6C383.3 87 379.3 78.7 378.2 68.6H461.7H469.9V62C469.9 45.8 465.1 32.5 455.4 22C447.1 13.1 436.7 7.80004 424.3 6.10004C424.3 5.90004 424.4 5.70003 424.4 5.50003C424.4 3.00003 420.8 0.900024 416.4 0.900024C412 0.900024 408.4 2.90003 408.4 5.50003C408.4 5.60003 408.4 5.70002 408.4 5.90002C395.3 7.30002 384.3 12.6 375.6 21.9C367.8 30.4 363.1 40.9 361.7 53.2H333.8L333.9 68.7ZM390.2 29.9C397.1 23.6 405.5 20.5 415.6 20.5C425.7 20.5 434.1 23.6 441 29.9C447.4 35.9 451.4 43.7 452.8 53.3H378.4C379.9 43.7 383.8 35.9 390.2 29.9Z" fill="#1A171B"></path><path d="M523.4 188.1V137.2H507V149.1C497.1 139.5 484.4 134.7 469.1 134.7C452.8 134.7 439.5 140.2 429.3 151.1C419.7 161.6 414.8 175 414.8 191.1C414.8 207.3 419.6 220.6 429.3 231.1C439.5 242 452.8 247.5 469.1 247.5C477.9 247.5 485.7 245.9 492.7 242.8C499.7 243.6 505.2 249.5 505.2 256.7C505.2 263.9 499.7 269.9 492.7 270.6C485.7 267.5 477.8 265.9 469.1 265.9C452.8 265.9 439.5 271.4 429.3 282.3C419.7 292.8 414.8 306.2 414.8 322.3C414.8 338.4 419.6 351.8 429.3 362.3C439.5 373.2 452.8 378.7 469.1 378.7C484.4 378.7 497 373.9 507 364.3V376.3H523.4V325.3C523.4 324.3 523.5 323.3 523.5 322.3C523.5 306.5 518.9 293.3 509.7 283C518 277.2 523.5 267.6 523.5 256.7C523.5 245.8 518.1 236.2 509.7 230.4C518.9 220 523.5 206.9 523.5 191.1C523.4 190.1 523.4 189.1 523.4 188.1ZM497.2 351.8C490.3 360 481 364.1 469.2 364.1C457.4 364.1 448 360 441.2 351.8C434.6 344.1 431.4 334.3 431.4 322.5C431.4 310.7 434.7 300.9 441.2 293.2C448.1 285 457.4 280.9 469.2 280.9C481 280.9 490.4 285 497.2 293.2C503.8 300.9 507 310.7 507 322.5C507 334.3 503.7 344.1 497.2 351.8ZM497.2 220.5C490.3 228.7 481 232.8 469.2 232.8C457.4 232.8 448 228.7 441.2 220.5C434.6 212.8 431.4 203 431.4 191.2C431.4 179.4 434.7 169.6 441.2 161.9C448.1 153.7 457.4 149.6 469.2 149.6C481 149.6 490.4 153.7 497.2 161.9C503.8 169.6 507 179.4 507 191.2C507 202.9 503.7 212.7 497.2 220.5Z" fill="#1A171B"></path></svg> 